<svg xmlns="http://www.w3.org/2000/svg" version="1.1" xmlns:xlink="http://www.w3.org/1999/xlink" width="1500" height="1500" viewBox="0 0 1500 1500"><rect width="1500" height="1500" x="0" y="0" id="background" stroke="transparent" fill="#000000"></rect><svg xml:space="preserve" width="1000" height="1000" data-version="2" data-id="lg_FvMA154ksW94QiQgqi" viewBox="0 0 597 187" x="250" y="250"><rect width="100%" height="100%" fill="transparent"></rect><path d="M104.43 183.8H7.07q-1.28 0-1.28-1.27l.26-28.42L70.02 31.89H9.49q-1.15 0-1.15-1.02V3.47q0-1.27 1.15-1.27h94.43q1.28 0 1.28 1.27v28.17L41.6 153.22h62.83q1.02 0 1.02 1.4l.26 27.91q0 1.27-1.28 1.27"></path><rect width="99.92" height="181.6" x="-49.96" y="-90.8" fill="none" rx="0" ry="0" transform="translate(56.25 93.5)"></rect><path d="M96.52 182.53 128.89 3.22q.26-1.02 1.28-1.02h37.85q1.02 0 1.27 1.02l31.1 179.31q.12 1.27-1.02 1.27h-28.93q-1.28 0-1.4-1.27l-2.81-19.12h-35.55l-2.81 19.12q-.12 1.27-1.27 1.27H97.54q-1.02 0-1.02-1.27m52.25-129.99-1.14 9.68-11.73 73.28h25.11L150.3 62.22z"></path><rect width="103.92" height="181.6" x="-51.96" y="-90.8" fill="none" rx="0" ry="0" transform="translate(148.98 93.5)"></rect><path d="M230.58 183.8h-29.31q-1.27 0-1.27-1.27l.5-179.31q0-1.02 1.02-1.02h50.22q23.96 0 37.91 14.59 13.96 14.59 13.96 39.7 0 18.35-7.27 31.99-7.39 13.51-19.12 20.9-11.72 7.39-25.48 7.39h-19.88v65.76q0 1.27-1.28 1.27m21.16-150.63-19.88.25v51.74h19.88q8.28 0 14.4-7.96 6.11-7.97 6.11-20.71 0-10.2-5.48-16.76-5.48-6.56-15.03-6.56"></path><rect width="103.61" height="181.6" x="-51.8" y="-90.8" fill="none" rx="0" ry="0" transform="translate(252.3 93.5)"></rect><path d="M333.03 183.8h-29.31q-1.27 0-1.27-1.27l.51-179.31q0-1.02 1.02-1.02h50.21q23.96 0 37.91 14.59 13.96 14.59 13.96 39.7 0 18.35-7.27 31.99-7.39 13.51-19.11 20.9-11.73 7.39-25.49 7.39h-19.88v65.76q0 1.27-1.28 1.27m21.16-150.63-19.88.25v51.74h19.88q8.28 0 14.4-7.96 6.12-7.97 6.12-20.71 0-10.2-5.48-16.76-5.48-6.56-15.04-6.56"></path><rect width="103.61" height="181.6" x="-51.8" y="-90.8" fill="none" rx="0" ry="0" transform="translate(354.76 93.5)"></rect><path d="M396.11 182.53 428.48 3.22q.25-1.02 1.27-1.02h37.85q1.02 0 1.28 1.02l31.09 179.31q.13 1.27-1.02 1.27h-28.92q-1.28 0-1.41-1.27l-2.8-19.12h-35.56l-2.8 19.12q-.13 1.27-1.27 1.27h-29.06q-1.02 0-1.02-1.27m52.25-129.99-1.15 9.68-11.72 73.28h25.1l-10.7-73.28z"></path><rect width="103.92" height="181.6" x="-51.96" y="-90.8" fill="none" rx="0" ry="0" transform="translate(448.57 93.5)"></rect><path d="M554 183.8h-29.95q-.89 0-.89-1.02l.25-74.17L488.49 3.22q-.25-1.02.77-1.02h29.06q1.27 0 1.53 1.02l19.24 70.22 19.63-70.22q.25-1.02 1.27-1.02h29.31q1.02 0 .77 1.02l-35.31 104.37.26 75.19q0 1.02-1.02 1.02"></path><rect width="101.86" height="181.6" x="-50.93" y="-90.8" fill="none" rx="0" ry="0" transform="translate(539.78 93.5)"></rect></svg></svg>